<svg id="Capa_1" enable-background="new 0 0 512 512" height="512" viewBox="0 0 512 512" width="512" xmlns="http://www.w3.org/2000/svg"><g><path fill="#662A82" d="m271 151h-30v30h-45v90h90v30h-90v30h45v30h30v-30h45v-90h-90v-30h90v-30h-45z"/><path fill="#662A82" d="m383.449 149.764 38.097-38.097c8.934 5.286 19.343 8.333 30.454 8.333 33.084 0 60-26.916 60-60s-26.916-60-60-60-60 26.916-60 60c0 11.112 3.047 21.52 8.333 30.454l-38.097 38.097c-25.2-21.042-56.711-34.759-91.236-37.866v-90.685h-30v90.685c-34.525 3.107-66.036 16.824-91.236 37.866l-38.097-38.097c5.286-8.934 8.333-19.343 8.333-30.454 0-33.084-26.916-60-60-60s-60 26.916-60 60 26.916 60 60 60c11.111 0 21.52-3.047 30.454-8.333l38.097 38.097c-21.042 25.2-34.759 56.711-37.866 91.236h-90.685v30h90.685c3.107 34.525 16.824 66.036 37.866 91.236l-38.097 38.097c-8.934-5.286-19.343-8.333-30.454-8.333-33.084 0-60 26.916-60 60s26.916 60 60 60 60-26.916 60-60c0-11.111-3.047-21.52-8.333-30.454l38.097-38.097c25.201 21.041 56.711 34.758 91.236 37.866v90.685h30v-90.685c34.525-3.107 66.036-16.824 91.237-37.866l38.097 38.097c-5.287 8.934-8.334 19.342-8.334 30.454 0 33.084 26.916 60 60 60s60-26.916 60-60-26.916-60-60-60c-11.111 0-21.52 3.047-30.453 8.333l-38.097-38.097c21.041-25.201 34.758-56.711 37.865-91.236h90.685v-30h-90.685c-3.107-34.525-16.824-66.036-37.866-91.236zm68.551-119.764c16.542 0 30 13.458 30 30s-13.458 30-30 30-30-13.458-30-30 13.458-30 30-30zm-392 60c-16.542 0-30-13.458-30-30s13.458-30 30-30 30 13.458 30 30-13.458 30-30 30zm0 392c-16.542 0-30-13.458-30-30s13.458-30 30-30 30 13.458 30 30-13.458 30-30 30zm392-60c16.542 0 30 13.458 30 30s-13.458 30-30 30-30-13.458-30-30 13.458-30 30-30zm-196-30c-74.991 0-136-61.009-136-136s61.009-136 136-136c74.99 0 136 61.009 136 136s-61.01 136-136 136z"/></g></svg>
