<?xml version="1.0" encoding="utf-8"?>
<!-- Generator: Adobe Illustrator 25.2.0, SVG Export Plug-In . SVG Version: 6.00 Build 0)  -->
<svg version="1.1" id="Layer_1" xmlns="http://www.w3.org/2000/svg" xmlns:xlink="http://www.w3.org/1999/xlink" x="0px" y="0px"
	 viewBox="0 0 1220 1080" style="enable-background:new 0 0 1220 1080;" xml:space="preserve">
<style type="text/css">
	.st0{fill:#D2E9FF;}
	.st1{fill:#9DD3FF;}
	.st2{fill:#5E9AF2;}
	.st3{fill:#F0F8FF;}
	.st4{fill:#662A83;}
	.st5{fill:#97C7FA;}
	.st6{fill:#2E49D2;}
	.st7{fill:#5F89D3;}
	.st8{fill:#003261;}
	.st9{fill:#00448C;}
	.st10{fill:#FF9490;}
	.st11{fill:#A366AA;}
	.st12{fill:#FFA668;}
	.st13{fill:#FF7A70;}
	.st14{fill:#FF8585;}
	.st15{fill:#E3F0FD;}
	.st16{fill:#FF5549;}
	.st17{fill:#E05344;}
	.st18{fill:#2776CE;}
	.st19{fill:#0F2B4E;}
</style>
<path class="st0" d="M1068.63,422.01c-45.3-38.64-99.91-271.68-287-150.31c-96.66,62.71-259.64-53.83-394.55-13.58
	c-123.89,36.97-135.84,158.77-123.85,198.45c24.21,80.17-51.14,92.1-121.05,126.54c-109.65,54.03-29.02,243.91,74.57,244.82
	c103.59,0.91,731.16-1.81,731.16-1.81s150.49,0.38,213.07-82.68C1228.32,654.08,1185.63,521.82,1068.63,422.01z"/>
<rect x="877.73" y="278.64" transform="matrix(-1 -1.224647e-16 1.224647e-16 -1 2013.3615 990.5897)" class="st1" width="257.9" height="433.32"/>
<rect x="869.65" y="278.64" class="st2" width="257.9" height="433.32"/>
<rect x="887.21" y="302.84" class="st3" width="223.39" height="150.93"/>
<rect x="986.85" y="595.41" class="st3" width="119.89" height="80.59"/>
<path class="st4" d="M896.42,379.88c0,0,38.14-4.75,61.45,16.72c23.31,21.47,66.73,1.9,84.21,0c30.39-3.31,54.22,6.64,61.29,17.57
	v32.79H896.42V379.88z"/>
<rect x="925.98" y="327.1" class="st5" width="1.6" height="51.21"/>
<rect x="988.71" y="349.08" class="st5" width="1.6" height="51.21"/>
<rect x="1053.43" y="337.49" class="st5" width="1.6" height="51.21"/>
<path class="st5" d="M945.43,334.96h-12.25c-0.73,0-1.33-0.6-1.33-1.33l0,0c0-0.73,0.6-1.33,1.33-1.33h12.25
	c0.73,0,1.33,0.6,1.33,1.33l0,0C946.76,334.36,946.16,334.96,945.43,334.96z"/>
<path class="st5" d="M945.43,339.75h-12.25c-0.73,0-1.33-0.6-1.33-1.33l0,0c0-0.73,0.6-1.33,1.33-1.33h12.25
	c0.73,0,1.33,0.6,1.33,1.33l0,0C946.76,339.15,946.16,339.75,945.43,339.75z"/>
<path class="st5" d="M1007.22,361.06h-12.25c-0.73,0-1.33-0.6-1.33-1.33l0,0c0-0.73,0.6-1.33,1.33-1.33h12.25
	c0.73,0,1.33,0.6,1.33,1.33l0,0C1008.55,360.46,1007.95,361.06,1007.22,361.06z"/>
<path class="st5" d="M1007.22,365.76h-12.25c-0.73,0-1.33-0.6-1.33-1.33l0,0c0-0.73,0.6-1.33,1.33-1.33h12.25
	c0.73,0,1.33,0.6,1.33,1.33l0,0C1008.55,365.16,1007.95,365.76,1007.22,365.76z"/>
<path class="st5" d="M1073,341.75h-12.25c-0.73,0-1.33-0.6-1.33-1.33l0,0c0-0.73,0.6-1.33,1.33-1.33H1073c0.73,0,1.33,0.6,1.33,1.33
	l0,0C1074.33,341.15,1073.73,341.75,1073,341.75z"/>
<path class="st5" d="M1073,346.45h-12.25c-0.73,0-1.33-0.6-1.33-1.33l0,0c0-0.73,0.6-1.33,1.33-1.33H1073c0.73,0,1.33,0.6,1.33,1.33
	l0,0C1074.33,345.85,1073.73,346.45,1073,346.45z"/>
<g>
	
		<ellipse transform="matrix(0.1602 -0.9871 0.9871 0.1602 428.1513 1487.9946)" class="st4" cx="1088.54" cy="492.38" rx="22.06" ry="22.06"/>
	<path class="st4" d="M1108.73,492.38c0,11.15-9.04,20.19-20.19,20.19c-5.26,0-10.06-2.01-13.65-5.31l13.65-14.88v-20.19
		C1099.69,472.19,1108.73,481.23,1108.73,492.38z"/>
	<path class="st4" d="M1080.85,488.82h-7.25c-0.33,0-0.61-0.27-0.61-0.61l0,0c0-0.33,0.27-0.61,0.61-0.61h7.25
		c0.33,0,0.61,0.27,0.61,0.61l0,0C1081.46,488.55,1081.19,488.82,1080.85,488.82z"/>
</g>
<g>
	<path class="st4" d="M1011.72,492.38c0-12.18,9.88-22.06,22.06-22.06c12.18,0,22.06,9.88,22.06,22.06
		c0,12.18-9.87,22.06-22.06,22.06C1021.6,514.44,1011.72,504.56,1011.72,492.38z"/>
	<path class="st4" d="M1033.78,492.38l12.4,15.93c-3.42,2.67-7.73,4.26-12.4,4.26c-11.15,0-20.19-9.04-20.19-20.19
		c0-11.15,9.04-20.19,20.19-20.19c10.53,0,19.17,8.06,20.1,18.34L1033.78,492.38z"/>
	<path class="st4" d="M1049.32,497.37h-5.04c-0.33,0-0.61-0.27-0.61-0.61l0,0c0-0.33,0.27-0.61,0.61-0.61h5.04
		c0.33,0,0.61,0.27,0.61,0.61l0,0C1049.93,497.1,1049.66,497.37,1049.32,497.37z"/>
</g>
<g>
	<path class="st4" d="M1066.48,553.13c0-12.18,9.88-22.06,22.06-22.06c12.18,0,22.06,9.87,22.06,22.06
		c0,12.18-9.88,22.06-22.06,22.06C1076.36,575.19,1066.48,565.31,1066.48,553.13z"/>
	<path class="st4" d="M1108.73,553.13c0,11.15-9.04,20.19-20.19,20.19c-5.26,0-10.06-2.01-13.65-5.31l13.65-14.88v-20.19
		C1099.69,532.94,1108.73,541.98,1108.73,553.13z"/>
	<path class="st4" d="M1080.85,549.58h-7.25c-0.33,0-0.61-0.27-0.61-0.61l0,0c0-0.33,0.27-0.61,0.61-0.61h7.25
		c0.33,0,0.61,0.27,0.61,0.61l0,0C1081.46,549.3,1081.19,549.58,1080.85,549.58z"/>
</g>
<g>
	<path class="st4" d="M1011.72,553.13c0-12.18,9.88-22.06,22.06-22.06c12.18,0,22.06,9.87,22.06,22.06
		c0,12.18-9.87,22.06-22.06,22.06C1021.6,575.19,1011.72,565.31,1011.72,553.13z"/>
	<path class="st4" d="M1053.88,551.29c-0.93-10.29-9.58-18.34-20.1-18.34c-11.15,0-20.19,9.04-20.19,20.19
		c0,11.15,9.04,20.19,20.19,20.19c4.68,0,8.98-1.59,12.4-4.26l-12.4-15.93L1053.88,551.29z"/>
	<path class="st4" d="M1049.32,558.12h-5.04c-0.33,0-0.61-0.27-0.61-0.61l0,0c0-0.33,0.27-0.61,0.61-0.61h5.04
		c0.33,0,0.61,0.27,0.61,0.61l0,0C1049.93,557.85,1049.66,558.12,1049.32,558.12z"/>
</g>
<g>
	<polygon class="st5" points="1101.58,670.36 991.53,670.36 991.53,605.34 992.9,605.34 992.9,669 1101.58,669 	"/>
</g>
<g>
	<path class="st5" d="M1025.93,646.85c-13.47-10.72-27.8,0-27.8,0v18.33h100.71v-47.39C1071.48,618.49,1039.4,657.57,1025.93,646.85
		z"/>
	<path class="st5" d="M999.29,610.3h46.93c0.63,0,1.15-0.52,1.15-1.15c0-0.63-0.52-1.15-1.15-1.15h-46.93
		c-0.63,0-1.15,0.52-1.15,1.15C998.14,609.78,998.65,610.3,999.29,610.3z"/>
	<path class="st5" d="M999.29,615.93h46.93c0.63,0,1.15-0.52,1.15-1.15c0-0.63-0.52-1.15-1.15-1.15h-46.93
		c-0.63,0-1.15,0.52-1.15,1.15C998.14,615.41,998.65,615.93,999.29,615.93z"/>
	<path class="st5" d="M999.08,621.25h31.07c0.52,0,0.94-0.42,0.94-0.94v-0.42c0-0.52-0.42-0.94-0.94-0.94h-31.07
		c-0.52,0-0.94,0.42-0.94,0.94v0.42C998.14,620.83,998.56,621.25,999.08,621.25z"/>
</g>
<g>
	<rect x="474.1" y="211.28" class="st2" width="352.88" height="532.18"/>
	<rect x="508.19" y="241.05" class="st3" width="284.11" height="316.67"/>
	<path class="st3" d="M514.23,658.9c0-28.22,22.88-51.1,51.1-51.1c28.22,0,51.1,22.88,51.1,51.1c0,28.22-22.88,51.09-51.1,51.09
		C537.11,709.99,514.23,687.11,514.23,658.9z"/>
	<path class="st4" d="M608.52,658.9c0-23.85-19.34-43.19-43.19-43.19c-23.86,0-43.19,19.34-43.19,43.19
		c0,23.85,19.34,43.19,43.19,43.19c9.85,0,18.93-3.3,26.19-8.85l-26.19-34.34l40.36,15.4C607.51,669.52,608.52,664.32,608.52,658.9z
		"/>
	<path class="st3" d="M688.32,658.9c0-28.22,22.88-51.1,51.1-51.1c28.22,0,51.09,22.88,51.09,51.1c0,28.22-22.88,51.09-51.09,51.09
		C711.2,709.99,688.32,687.11,688.32,658.9z"/>
	<path class="st4" d="M739.42,615.7c-23.86,0-43.19,19.34-43.19,43.19c0,11.81,4.73,22.5,12.41,30.3l30.78-30.3l40.36,15.4
		c1.83-4.78,2.83-9.98,2.83-15.4C782.6,635.04,763.27,615.7,739.42,615.7z"/>
	<g>
		<path class="st5" d="M733.1,636.97h-18.38c-0.72,0-1.31,0.59-1.31,1.31l0,0c0,0.72,0.59,1.31,1.31,1.31h18.38
			c0.72,0,1.31-0.59,1.31-1.31l0,0C734.42,637.56,733.83,636.97,733.1,636.97z"/>
		<path class="st5" d="M733.1,641.13h-18.38c-0.72,0-1.31,0.59-1.31,1.31c0,0.72,0.59,1.31,1.31,1.31h18.38
			c0.72,0,1.31-0.59,1.31-1.31C734.42,641.72,733.83,641.13,733.1,641.13z"/>
		<path class="st5" d="M722.31,645.29h-7.59c-0.72,0-1.31,0.59-1.31,1.31c0,0.72,0.59,1.31,1.31,1.31h7.59
			c0.72,0,1.31-0.59,1.31-1.31C723.62,645.88,723.03,645.29,722.31,645.29z"/>
	</g>
	<g>
		<path class="st5" d="M558.66,636.97h-18.39c-0.72,0-1.31,0.59-1.31,1.31l0,0c0,0.72,0.59,1.31,1.31,1.31h18.39
			c0.72,0,1.31-0.59,1.31-1.31l0,0C559.98,637.56,559.38,636.97,558.66,636.97z"/>
		<path class="st5" d="M558.66,641.13h-18.39c-0.72,0-1.31,0.59-1.31,1.31c0,0.72,0.59,1.31,1.31,1.31h18.39
			c0.72,0,1.31-0.59,1.31-1.31C559.98,641.72,559.38,641.13,558.66,641.13z"/>
		<path class="st5" d="M547.87,645.29h-7.59c-0.72,0-1.31,0.59-1.31,1.31c0,0.72,0.59,1.31,1.31,1.31h7.59
			c0.72,0,1.31-0.59,1.31-1.31C549.18,645.88,548.59,645.29,547.87,645.29z"/>
	</g>
	<g>
		<rect x="533.49" y="354.22" class="st5" width="29.98" height="186.76"/>
		<rect x="582.61" y="302.17" class="st5" width="29.98" height="238.81"/>
		<rect x="636.2" y="399.39" class="st5" width="29.98" height="141.59"/>
		<rect x="688.35" y="334.05" class="st5" width="29.98" height="206.93"/>
		<rect x="740.77" y="427.1" class="st5" width="29.98" height="113.88"/>
	</g>
	<g>
		<path class="st5" d="M716.91,307.13h-25.39c-1.44,0-2.63,1.18-2.63,2.63c0,1.44,1.18,2.63,2.63,2.63h25.39
			c1.44,0,2.63-1.18,2.63-2.63C719.53,308.31,718.35,307.13,716.91,307.13z"/>
		<path class="st5" d="M697.3,316.68h-5.78c-1.44,0-2.63,1.18-2.63,2.63c0,1.44,1.18,2.63,2.63,2.63h5.78
			c1.44,0,2.63-1.18,2.63-2.63C699.93,317.87,698.75,316.68,697.3,316.68z"/>
		<path class="st5" d="M612.29,266.45H586.9c-1.44,0-2.63,1.18-2.63,2.63c0,1.44,1.18,2.63,2.63,2.63h25.39
			c1.44,0,2.63-1.18,2.63-2.63C614.91,267.63,613.73,266.45,612.29,266.45z"/>
		<path class="st5" d="M592.68,276.01h-5.78c-1.44,0-2.63,1.18-2.63,2.63l0,0c0,1.44,1.18,2.63,2.63,2.63h5.78
			c1.44,0,2.63-1.18,2.63-2.63l0,0C595.31,277.19,594.12,276.01,592.68,276.01z"/>
		<path class="st5" d="M663.89,371.51H638.5c-1.44,0-2.63,1.18-2.63,2.63c0,1.44,1.18,2.63,2.63,2.63h25.39
			c1.44,0,2.63-1.18,2.63-2.63C666.51,372.69,665.33,371.51,663.89,371.51z"/>
		<path class="st5" d="M644.28,381.07h-5.78c-1.44,0-2.63,1.18-2.63,2.63l0,0c0,1.44,1.18,2.63,2.63,2.63h5.78
			c1.44,0,2.63-1.18,2.63-2.63l0,0C646.91,382.25,645.72,381.07,644.28,381.07z"/>
		<path class="st5" d="M768.46,399.39h-25.39c-1.44,0-2.63,1.18-2.63,2.63c0,1.44,1.18,2.63,2.63,2.63h25.39
			c1.44,0,2.63-1.18,2.63-2.63C771.08,400.57,769.9,399.39,768.46,399.39z"/>
		<path class="st5" d="M748.85,408.94h-5.78c-1.44,0-2.63,1.18-2.63,2.63c0,1.44,1.18,2.63,2.63,2.63h5.78
			c1.44,0,2.63-1.18,2.63-2.63C751.47,410.13,750.29,408.94,748.85,408.94z"/>
	</g>
</g>
<g>
	<rect x="168.58" y="413.01" class="st1" width="257.9" height="145.19"/>
	<rect x="176.96" y="413.01" class="st2" width="257.9" height="145.19"/>
	
		<ellipse transform="matrix(0.7071 -0.7071 0.7071 0.7071 -268.5642 316.2758)" class="st3" cx="247.5" cy="482.32" rx="46.63" ry="46.63"/>
	<g>
		<path class="st3" d="M405.87,456.27h-77.25c-2.8,0-5.09,2.29-5.09,5.09l0,0c0,2.8,2.29,5.09,5.09,5.09h77.25
			c2.8,0,5.09-2.29,5.09-5.09l0,0C410.96,458.56,408.67,456.27,405.87,456.27z"/>
		<path class="st3" d="M405.87,477.23h-77.25c-2.8,0-5.09,2.29-5.09,5.09l0,0c0,2.8,2.29,5.09,5.09,5.09h77.25
			c2.8,0,5.09-2.29,5.09-5.09l0,0C410.96,479.52,408.67,477.23,405.87,477.23z"/>
		<path class="st3" d="M405.87,498.19h-77.25c-2.8,0-5.09,2.29-5.09,5.09c0,2.8,2.29,5.09,5.09,5.09h77.25
			c2.8,0,5.09-2.29,5.09-5.09C410.96,500.48,408.67,498.19,405.87,498.19z"/>
	</g>
	<path class="st6" d="M204.8,481.65h42.7v-42.7C223.92,438.95,204.8,458.07,204.8,481.65z"/>
	<path class="st6" d="M290.19,483.02H247.5h0H204.8c0,23.58,19.12,42.69,42.69,42.7l0,0l0,0c0,0,0,0,0,0h0
		C271.08,525.72,290.19,506.6,290.19,483.02z"/>
	<g>
		<path class="st7" d="M240.12,459.7h-23.17c-1.32,0-2.4,1.08-2.4,2.4c0,1.32,1.08,2.4,2.4,2.4h23.17c1.32,0,2.4-1.08,2.4-2.4
			C242.52,460.77,241.44,459.7,240.12,459.7z"/>
		<path class="st7" d="M222.23,468.42h-5.28c-1.32,0-2.4,1.08-2.4,2.4c0,1.32,1.08,2.4,2.4,2.4h5.28c1.32,0,2.4-1.08,2.4-2.4
			C224.63,469.5,223.55,468.42,222.23,468.42z"/>
	</g>
	<g>
		<path class="st5" d="M274.52,493.46h-23.17c-1.32,0-2.4,1.08-2.4,2.4c0,1.32,1.08,2.4,2.4,2.4h23.17c1.32,0,2.4-1.08,2.4-2.4
			C276.92,494.54,275.84,493.46,274.52,493.46z"/>
		<path class="st5" d="M256.63,502.18h-5.28c-1.32,0-2.4,1.08-2.4,2.4l0,0c0,1.32,1.08,2.4,2.4,2.4h5.28c1.32,0,2.4-1.08,2.4-2.4
			l0,0C259.03,503.26,257.95,502.18,256.63,502.18z"/>
	</g>
</g>
<g>
	<path class="st1" d="M150.41,584.2v148.49h257.9V584.2H150.41z"/>
	<path class="st2" d="M158.8,584.2v148.49h257.9V584.2H158.8z"/>
	
		<ellipse transform="matrix(0.4433 -0.8964 0.8964 0.4433 -458.4304 569.5421)" class="st3" cx="229.33" cy="653.86" rx="46.63" ry="46.63"/>
	<g>
		<path class="st3" d="M310.46,637.99h77.25c2.8,0,5.09-2.29,5.09-5.09c0-2.8-2.29-5.09-5.09-5.09h-77.25
			c-2.8,0-5.09,2.29-5.09,5.09C305.37,635.7,307.66,637.99,310.46,637.99z"/>
		<path class="st3" d="M387.71,648.77h-77.25c-2.8,0-5.09,2.29-5.09,5.09s2.29,5.09,5.09,5.09h77.25c2.8,0,5.09-2.29,5.09-5.09
			S390.51,648.77,387.71,648.77z"/>
		<path class="st3" d="M387.71,669.73h-77.25c-2.8,0-5.09,2.29-5.09,5.09l0,0c0,2.8,2.29,5.09,5.09,5.09h77.25
			c2.8,0,5.09-2.29,5.09-5.09l0,0C392.8,672.02,390.51,669.73,387.71,669.73z"/>
	</g>
	<path class="st6" d="M229.33,654.62l-42.69-0.54c0,0.18,0,0.36,0,0.54c0,23.58,19.12,42.7,42.7,42.7c8.43,0,16.29-2.45,22.91-6.66
		L229.33,654.62z"/>
	<g>
		<path class="st5" d="M230.9,668.06h-23.17c-1.32,0-2.4,1.08-2.4,2.4v0c0,1.32,1.08,2.4,2.4,2.4h23.17c1.32,0,2.4-1.08,2.4-2.4v0
			C233.3,669.14,232.22,668.06,230.9,668.06z"/>
		<path class="st5" d="M213.01,676.78h-5.28c-1.32,0-2.4,1.08-2.4,2.4c0,1.32,1.08,2.4,2.4,2.4h5.28c1.32,0,2.4-1.08,2.4-2.4
			C215.41,677.86,214.33,676.78,213.01,676.78z"/>
	</g>
</g>
<g>
	<rect x="150.41" y="254.66" class="st1" width="257.91" height="134.55"/>
	<rect x="158.8" y="254.66" class="st2" width="257.9" height="134.55"/>
	
		<ellipse transform="matrix(0.9523 -0.3052 0.3052 0.9523 -87.9115 85.4385)" class="st3" cx="229.33" cy="323.91" rx="46.63" ry="46.63"/>
	<path class="st6" d="M229.33,281.22c-23.58,0-42.7,19.11-42.7,42.69c0,16.15,8.97,30.21,22.2,37.46
		c6.84-12.67,20.49-37.46,20.49-37.46l20.22,37.61c13.38-7.21,22.48-21.35,22.48-37.61C272.02,300.34,252.91,281.22,229.33,281.22z"
		/>
	<g>
		<path class="st3" d="M387.71,297.87h-77.25c-2.8,0-5.09,2.29-5.09,5.09v0c0,2.8,2.29,5.09,5.09,5.09h77.25
			c2.8,0,5.09-2.29,5.09-5.09v0C392.8,300.16,390.51,297.87,387.71,297.87z"/>
		<path class="st3" d="M387.71,318.82h-77.25c-2.8,0-5.09,2.29-5.09,5.09c0,2.8,2.29,5.09,5.09,5.09h77.25
			c2.8,0,5.09-2.29,5.09-5.09C392.8,321.12,390.51,318.82,387.71,318.82z"/>
		<path class="st3" d="M387.71,339.78h-77.25c-2.8,0-5.09,2.29-5.09,5.09c0,2.8,2.29,5.09,5.09,5.09h77.25
			c2.8,0,5.09-2.29,5.09-5.09C392.8,342.07,390.51,339.78,387.71,339.78z"/>
	</g>
	<g>
		<path class="st7" d="M230.9,303.52h-23.17c-1.32,0-2.4,1.08-2.4,2.4c0,1.32,1.08,2.4,2.4,2.4h23.17c1.32,0,2.4-1.08,2.4-2.4
			C233.3,304.6,232.22,303.52,230.9,303.52z"/>
		<path class="st7" d="M213.01,312.25h-5.28c-1.32,0-2.4,1.08-2.4,2.4l0,0c0,1.32,1.08,2.4,2.4,2.4h5.28c1.32,0,2.4-1.08,2.4-2.4
			l0,0C215.41,313.33,214.33,312.25,213.01,312.25z"/>
	</g>
</g>
<path class="st4" d="M476.52,487.03c0,0,30.08,31.06,31.53,42.77c1.44,11.71-14.31,30.03-14.31,30.03L476.52,487.03z"/>
<path class="st8" d="M463.66,809.21c0,0-1.02,16.51-4.22,16.75c-0.42,0.03-16.2,0.03-16.2,0.03l-20.14-0.12c0,0,0.13-4.85,6.02-5.88
	c5.89-1.03,15.74-5.16,19.31-12.94C452.18,798.86,463.66,809.21,463.66,809.21z"/>
<path class="st8" d="M508.51,809.21c0,0-1.02,16.51-4.22,16.75c-0.42,0.03-16.2,0.03-16.2,0.03l-20.2-0.07c0,0,0.19-4.9,6.08-5.92
	c5.89-1.03,15.74-5.16,19.31-12.94C497.03,798.86,508.51,809.21,508.51,809.21z"/>
<path class="st8" d="M441.36,632.16c0,0,5.27,33.69,24.92,93.48c19.65,59.8,22.33,85.69,22.33,85.69s5.31,0.77,10.93,0.77
	c3.55,0,10.15-1.36,10.15-1.36s0.18-65.35-8.88-95.42c-9.06-30.07-1.95-108.41-1.95-108.41L441.36,632.16z"/>
<path class="st9" d="M431.1,608.76c0,0-0.75,50.76,8.04,113.09c8.78,62.33,5.81,88.79,5.81,88.79s7.23,1.3,9.77,1.38
	c2.72,0.09,11.26-0.68,11.26-0.68s12.57-62.35,8.97-93.55c-3.6-31.2,17.21-107.05,17.21-107.05L431.1,608.76z"/>
<path class="st10" d="M471.82,489.97l-9.92,7.35l-14.34-3.02c0.2-1.31,1.15-6.73,2.01-11.64c0.05-0.29,0.1-0.58,0.15-0.86
	c0.74-4.18,1.38-7.76,1.38-7.76l13.39-6.68l4.99-2.49c-0.01,0.09-0.39,4.64-0.44,5.3C468.11,481.96,471.82,489.97,471.82,489.97z"/>
<path class="st4" d="M448.56,486.26c0.31-0.13,19.51-5.8,21.59-5.11c2.08,0.69,3.32,4.72,3.32,4.72l-31.39,7.1
	C442.08,492.97,444.55,487.95,448.56,486.26z"/>
<path class="st11" d="M500.24,615.03c-3.25,14.84-57.39,16.6-71.35,3.13c-1.59-1.53-1.67-8.68-1.07-18.31
	c1.17-18.82,4.93-47.12,5.08-61.59c0.07-6.98,1.03-14.13,2.31-20.61c2.72-13.82,6.87-24.67,6.87-24.67s26.44-8.55,31.39-7.09
	C497.31,492.88,503.49,600.19,500.24,615.03z"/>
<path class="st4" d="M427.83,599.85c1.17-18.82,4.93-47.12,5.08-61.59c0.07-6.98,1.03-14.13,2.31-20.61l15.91-2.81
	C451.12,514.84,466.67,578.36,427.83,599.85z"/>
<path class="st10" d="M436.44,573.62c0,0,1.08,2.59-1.19,4.33c-2.28,1.74-3.75,4.56-3.23,6.62c0.52,2.06,5.52,5.42,7.25,4.88
	c1.73-0.54,5.26-3.26,4.88-4.34c-0.38-1.09,2.37-9.54-1.85-12.79C438.07,569.06,436.44,573.62,436.44,573.62z"/>
<path class="st11" d="M454.23,489.16c0,0-15.51,2.9-27.87,21.12c-12.36,18.22-20.49,31.76-18.22,38.33
	c2.28,6.57,23.03,29.34,26.61,29.34c3.58,0,9.35-2.6,9.68-8.46c0,0-14.61-21.9-11.73-25.18c1.23-1.4,18.97-15.8,21.5-9.3
	C458.39,545.77,454.23,489.16,454.23,489.16z"/>
<path class="st12" d="M468.04,470.38c-2.94,5.63-13.9,10.49-18.47,12.28c0.05-0.29,0.1-0.58,0.15-0.86
	c0.74-4.18,1.38-7.76,1.38-7.76l13.39-6.68C467.45,467.32,469.25,468.06,468.04,470.38z"/>
<path class="st10" d="M446.78,474.34c0,0,19.82,6.18,23.49-6.22c3.66-12.4,8.69-19.96-3.82-24.43c-12.5-4.47-16.37-0.47-18.6,3.37
	C445.62,450.9,441.72,472.41,446.78,474.34z"/>
<path class="st8" d="M448.63,445.86c0,0,1.26,14.44,4.25,13.81c2.99-0.63,5.69-1.09,5.26,3.26c-0.44,4.35-4.58,9.38,4.62,10.15
	s22.43-22.96,19.9-27.45C475.36,432.67,438.09,430.05,448.63,445.86z"/>
<polygon class="st10" points="91.69,781.32 97.73,806.74 106.77,806.69 107.1,781.32 "/>
<polygon class="st10" points="167.74,782.4 184.91,806.74 191.61,798.14 181.27,779.05 "/>
<path class="st8" d="M123.09,447.28c-3.12-1.77-6.86-1.97-9.48-1.81c0.67-0.7,2-0.95,2-0.95c-1.62-0.24-5.24,1.37-5.24,1.37
	c-22.56-8.69-26.11,24.53-25.64,32.25c0.47,7.72-7.58,10.24-19.32,16.32c-22.4,11.6-24.37,27.14-24.37,27.14
	c0.17,0.1,0.36,0.22,0.55,0.35c1.11-1.88,3.4-5.42,5.33-5.95c-0.07,0.17-2.28,4.87-3.1,7.56c6.61,5.03,18.97,16.17,27.59,24.06
	c-0.04-1.54,0.02-3.73,0.59-4.89l1.06,6.41c4.61,4.24,7.79,7.22,7.79,7.22c-0.57-6.24,28.21-39.15,43.23-49.01
	c3.66-5.38,4.95-14.89,5.05-15.64c-0.63,7.54-1.92,11.77-3.07,14.15C138.77,494.15,131.36,451.98,123.09,447.28z"/>
<path class="st10" d="M123.18,507.84c0.08,0.03-7.25,3.84-12.76,2.33c-5.18-1.41-8.57-8.13-8.5-8.15c2.19-0.44,2.83-3.45,2.78-16.41
	l0.99,0.2l16.68,3.3c0,0-0.38,5.25-0.39,10.2C121.98,503.45,122.23,507.39,123.18,507.84z"/>
<path class="st13" d="M104.32,452.72c0,0,8.23-8.76,18.56-0.45C122.88,452.27,116.87,451.23,104.32,452.72z"/>
<path class="st14" d="M122.38,489.1c0,0-0.38,5.25-0.39,10.2c-9.34-0.26-14.27-8.78-16.29-13.5L122.38,489.1z"/>
<path class="st8" d="M103.98,483.98c0,0-4.89-7.73-6.07-14.34c-0.84-4.72,1.57-22.21,19.14-19.69c0,0,5.11,0.5,9.9,3.74
	c3.82,2.58,9.32,8.14,3.17,23.41l-1.6,5.16L103.98,483.98z"/>
<path class="st11" d="M188.88,791.47l-8.84,0.27l-9.57,0.29c0,0-22.11-24.62-34.51-64.08c-0.29-0.92-0.59-1.85-0.92-2.79
	c-6.79-19.79-20.86-44.64-28.27-67.12c-1.18-3.58-2.24-6.95-3.19-10.14c-0.3-1.02-0.6-2.03-0.88-3.01
	c-5.46-18.99-7.05-31.45-8.51-44.77l53.55,0.43C147.73,600.54,156.37,691.5,188.88,791.47z"/>
<path class="st15" d="M140.23,569.78c-0.13,25.48,3.74,36.41,3.74,36.41s-22.93,11.65-50.18,3.07c-0.32-0.1-22.56-5.18-22.56-5.18
	c0.46-1.03,4.51-18.2,4.96-19.15c5.75-12.35,10.12-17.77,10.8-21.57c1.27-7.09,1.29-14.43,0.66-21.35
	c-1.66-18.32-6.61-33.52-6.61-33.52c7.42-1.69,14.57-4.58,22.3-7.48c1.78,2.21,7.02,4.45,11.73,4.34c5.43-0.12,7.12-2.41,6.92-5
	c5.78,3.22,10.38,6.28,10.38,6.28c4.92,8.54,14.89,16.83,15.61,29.93C148.17,539.79,140.23,569.06,140.23,569.78z"/>
<path class="st16" d="M94.18,572.62c-2.34,3.31-6.83,23.45-17.99,25.98c5.75-14.35,10.12-20.64,10.8-25.06
	c1.27-8.24,1.29-16.76,0.66-24.8c3.74-6.55,6.53-11.04,6.53-11.04c0.29-1.06,5.94-18.52,7.75-2.91
	C103.73,550.4,96.79,568.91,94.18,572.62z"/>
<path class="st10" d="M125.5,493.79c0,0-22.09,0.36-22.1-13.39c-0.02-13.76-2.88-22.98,11.23-23.79c14.1-0.81,16.85,4.43,17.97,9.02
	C133.72,470.21,131.25,493.34,125.5,493.79z"/>
<path class="st8" d="M131.94,457.97c-3.41-4.13-5.99-3.23-7.43-1.99c-4.77-7.13-19.86,3.18-19.86,3.18
	c-1.48,9.87-8.6,15.53-8.6,15.53s4.03,2.49,13.31,0.1c7.3-1.88,12.61-12.28,14.53-16.62c1.31,1.17,4.09,3.87,4.92,6.51
	c1.1,3.5,1.6,10.72,3.7,10.47C132.5,475.15,137.06,464.18,131.94,457.97z"/>
<path class="st10" d="M97.43,805.32c0,0,0.73,5.03-1.15,10.42c0,0-1.48,6.74,5.16,6.87c6.64,0.13,8.27-0.5,7.52-4.64
	c-0.75-4.13-2.18-11.28-2.18-11.28L97.43,805.32z"/>
<path class="st17" d="M109.58,825.91c0,0-0.01,0-0.02,0.01H95.82c-0.01-0.01-0.02-0.01-0.02-0.01c-0.75-3.53,0.48-10.17,0.48-10.17
	c7.52,7.19,12.22-0.18,12.22-0.18C109.72,818.64,109.58,825.91,109.58,825.91z"/>
<path class="st10" d="M207.61,818.96c0,0-12.24-13.9-16-20.82l-9.1,4.66l20.35,19.11l4.76-0.63L207.61,818.96z"/>
<path class="st17" d="M215.11,825.89h-16.99c-1.5-1.35-2.92-4.06-4.67-7.62c-1-2.04-3.24-3.16-5.54-3.78v11.41h-3.51l-3.25-12.13
	c-2.17-4.06-0.54-7.79,0.98-11c1.77,0,6.92,1.28,15.96,11.67c2.97,3.41,6.25,4.63,9.51,4.53c0.04,0.03,0.09,0.05,0.13,0.07
	C212.89,821.39,214.57,824.3,215.11,825.89z"/>
<path class="st11" d="M214.29,516.62c0,0-14.5,8.11-19.68,10.44c-1.84,0.83-5.18,2.38-8.59,3.98c-2.06,0.96-4.14,1.94-5.94,2.79
	c-3.04,1.43-6.67,0.65-8.86-1.91c-7.85-9.17-28.17-29.04-49.15-31.53l-0.07-0.03c0,0,0,0.01,0.01,0.02c-0.01,0-0.02,0-0.03,0
	l0.12,0.23c1.18,2.93,12.68,31.67,13.04,37.74c0.38,6.39,1.5,104.48,1.5,104.48s-0.75,4.51,7.89,2.63c8.64-1.88,10.9-3.76,10.9-3.76
	s-8.27-60.51-6.01-81.56c0.44-4.13,0.04-8.77-0.88-13.56c12.78,7.74,27.85,11.18,27.85,11.18s5.62-2.45,14.35-7.86
	c3.67-2.28,7.92-5.9,12.1-9.74c5.06-4.64,13.76-15.83,13.76-15.83L214.29,516.62z"/>
<path class="st4" d="M180.04,791.74l-9.57,0.29c0,0-22.11-24.62-34.51-64.08c-0.29-0.92-0.59-1.85-0.92-2.79
	c-6.79-19.79-20.86-44.64-28.27-67.12c-1.18-3.58-2.24-6.95-3.19-10.14c-0.3-1.02-0.6-2.03-0.88-3.01l7.89-5.98
	c0,0,23.67,38.34,31,74.41C147.94,744.66,173.44,782.37,180.04,791.74z"/>
<path class="st11" d="M111.39,716.68c0.14,17.54-0.75,57.88-3.04,74.58h-8.48c-4.69,0-7.02-0.07-7.02-0.07
	c-5.73-29.03-9.81-53.06-12.78-73.76c-2.44-16.99-4.6-31.55-6.27-44.09c-1.68-12.62-2.84-23.18-3.26-32.11
	c-0.06-1.41-0.11-2.77-0.14-4.1c-0.03-1.33-0.03-2.63-0.02-3.89l46.27-4.51C116.07,659.47,111.32,706.48,111.39,716.68z"/>
<path class="st4" d="M99.88,791.26c-4.69,0-7.02-0.07-7.02-0.07c-5.73-29.03-9.81-53.06-12.78-73.76
	c-2.44-16.99-4.6-31.55-6.27-44.09c-1.68-12.62-2.84-23.18-3.26-32.11l16.98,9.99c0,0-10.84,3.82-6.7,32.76
	C84.96,712.92,94.12,787.16,99.88,791.26z"/>
<path class="st11" d="M102.06,640.95c0,0-3.26,11.78-14.53,10.27c-11.28-1.5-27.31-8.27-27.31-8.27s4.82-15.23,10.81-35.23
	c7.25-24.22,16.23-55.43,20.46-75.12c1.19-5.52,2-10.13,2.3-13.43l9.55-18.16c0,0,13.75,31.31,14.51,39.2
	C118.6,548.11,102.06,640.95,102.06,640.95z"/>
<path class="st10" d="M142.33,549.03c-5.43,0.71-7.51,3.6-8.18,7.49c-0.36,2.1-1.44,4.17-2.36,5.64
	c-5.41,0.29-18.28,0.99-29.09,1.68l-0.89,14.19c8.88-1.11,19.8-3.36,32.37-7.66c0.97-0.17,2.17-0.76,3.68-2
	c7.79-6.38,12.21-17.06,12.22-18.59C150.09,548.24,147.76,548.32,142.33,549.03z"/>
<path class="st4" d="M101.56,556.76c-0.5,12.78-3.51,37.58-30.32,50.86c-0.07,0.03-0.14,0.07-0.21,0.1
	c7.25-24.22,16.23-55.43,20.46-75.12C96.42,539.96,101.84,549.72,101.56,556.76z"/>
<path class="st11" d="M103.34,501.02c0,0-22.93,1.63-28.44,13.9c-5.51,12.28-7.27,53.12-0.25,65.15c0,0,9.66,2.75,26.74-0.44
	c0.21-0.04,0.42-0.08,0.63-0.12c0,0,5.45-13.34,0.56-15.97c0,0-14.41,0.75-12.9-4.01C91.18,554.76,103.34,501.02,103.34,501.02z"/>
<g>
	<path class="st10" d="M229.84,506.99c-12.34-1.59-15.45,9.64-15.45,9.64l2.3,7.71c3.8,0.53,7.13-0.47,10.2-4.85
		c3.07-4.39,3.91-2.7,5.86-5.97C235.39,509.08,231.25,507.43,229.84,506.99z"/>
	<path class="st10" d="M194.61,527.07c-1.84,0.83-5.18,2.38-8.59,3.98c1.82,3.24,4.11,9.13,4.71,18.86
		c3.67-2.28,8.41-6.06,12.46-10.04c6.5-6.38,13.4-15.53,13.4-15.53l-2.3-7.71C214.29,516.62,199.79,524.73,194.61,527.07z"/>
</g>
<g>
	<path class="st10" d="M849.1,616.46c0,0-8.77,2.25-14.35,0.57c-5.58-1.68-15.18,1.08-16.72,3.11c-1.55,2.03-0.98,2.84,1.78,3.54
		c2.76,0.7,12.53,4.87,18.95,2.46c6.42-2.41,14.8-2.5,14.8-2.5L849.1,616.46z"/>
	<path class="st9" d="M924.93,540.25c0,0-9.86,70.05-26.18,76.32c-8.05,3.1-43.64,10.11-54.17,10.82c0,0-2.58-2.09-1.95-10.61
		c0,0,37.29-13.69,42.58-21.13c7.88-11.08-4.89-45.26,5-55.67S916.76,525.11,924.93,540.25z"/>
</g>
<path class="st6" d="M923.67,810.15v-15.27h24.04c0.65,0,1.18-0.53,1.18-1.18v-2.45c0-0.65-0.53-1.18-1.18-1.18h-24.04v-86.94
	c0-2.44-2-4.44-4.44-4.44h-4.76c-2.44,0-4.44,2-4.44,4.44v86.94h-24.04c-0.65,0-1.18,0.53-1.18,1.18v2.45
	c0,0.65,0.53,1.18,1.18,1.18h24.04v15.27c-17.4,1.31-31.33,7.58-35.25,15.67h84.12C955,817.73,941.06,811.46,923.67,810.15z"/>
<path class="st8" d="M921.6,687.83c-2.87,4.88-6.2,9.45-9.63,13.77c-10.59,13.37-22.12,24.4-24.13,34.82
	c-0.4,2.08-1.03,4.31-1.86,6.67c-0.84,2.39-1.88,4.9-3.07,7.49c-4.49,9.76-11.22,20.7-17.93,30.65
	c-11.6,17.19-22.51,31.54-22.51,31.54l-20.01-0.85c0.8-2,9.53-25.74,21.2-54.75c4.74-11.78,9.78-24.3,14.64-36.38
	c0.65-1.61,1.3-3.22,1.94-4.81c1.49-3.7,2.95-7.34,4.38-10.88c10.96-27.24,19.69-48.93,19.69-48.93s43.81-16.6,48.36-5.84
	C936.42,659.19,933.37,667.88,921.6,687.83z"/>
<path class="st8" d="M841.84,809.13c0,0-1.02,16.51-4.22,16.75c-0.43,0.03-16.2,0.03-16.2,0.03l-20.14-0.12c0,0,0.13-4.85,6.02-5.88
	c5.89-1.03,15.74-5.16,19.31-12.94C830.36,798.79,841.84,809.13,841.84,809.13z"/>
<path class="st8" d="M888.17,761.97c0,0,13.92,8.94,12.57,11.85c-0.18,0.39-7.87,14.16-7.87,14.16l-9.92,17.53
	c0,0-4.17-2.48-2.2-8.12c1.97-5.64,3.17-16.26-1.89-23.17C873.54,766.95,888.17,761.97,888.17,761.97z"/>
<path class="st9" d="M869.34,648.29c0,0-54.99,34.25-61.13,57.27c-6.14,23.02,73.15,72.13,73.15,72.13s8.7-7.67,10.23-13.3
	c0,0-35.84-42.94-43.61-52.56c-4.77-5.91,70.6-20.46,79.8-34.79c9.21-14.32,5.91-26.37,5.91-26.37L869.34,648.29z"/>
<path class="st4" d="M973.12,692.27H860.58c-2.25,0-4.09,1.84-4.09,4.09v22.51c0,2.25,1.84,4.09,4.09,4.09h112.54
	c2.25,0,4.09-1.84,4.09-4.09v-22.51C977.22,694.11,975.37,692.27,973.12,692.27z"/>
<path class="st10" d="M894.77,528.24c-5.4,3.35-8.38,7.59-8.38,7.59c13.17,3.41,35.01-8.8,35.01-8.8s-8.48-5.7-11.62-18.22
	c-0.16-0.63-0.3-1.28-0.43-1.94c-0.41-2.11-0.67-4.39-0.71-6.86l-6.05,5.42l-10.06,9.02c0,0,0.23,3.74,1.49,10.17
	C894.23,525.76,894.48,526.96,894.77,528.24z"/>
<path class="st6" d="M935.3,590.39c-1.89,25.38,1.29,63.96-0.85,70.65c-1.85,5.77-23.59,2.35-31.99,0.43
	c-3.11-0.71-6.88-1.73-10.77-2.93c-10.85-3.36-22.68-8.16-23.94-11.72c-0.05-0.14-0.09-0.28-0.12-0.41c-0.12-0.52-0.09-1,0.02-1.49
	c0.42-1.82,2.05-3.78,2.24-8.28c0.21-5.02,0.18-10.93,0.37-17.29c0.01-0.72,0.02-1.5,0.1-2.21l0-0.26c0-0.14,0.01-0.27,0.01-0.41
	c0.18-7.09,0.55-14.54,0.98-21.93c0.27-4.64,0.59-9.24,0.95-13.64c0.95-11.37,2.22-21.48,3.91-27.87
	c2.76-10.42,8.84-17.21,14.38-22.19l4-3.44c4.47,0.98,9.75,0.33,14.53-1.94c5.17-2.46,6.96-4.22,7.86-3.55
	C928.93,531.13,937.52,559.37,935.3,590.39z"/>
<path class="st9" d="M891.75,658.59c-10.85-3.36-22.68-8.16-23.94-11.72c-0.05-0.14-0.09-0.28-0.12-0.41c0.01-0.5,0.01-1,0.02-1.49
	c0.42-1.82,2.05-3.78,2.24-8.28c0.21-5.02,0.18-10.93,0.37-17.29c0.01-0.72,0.02-1.5,0.1-2.21l0-0.26c0-0.14,0.01-0.27,0.01-0.41
	l40.99-18.59C911.42,597.93,913.78,630.97,891.75,658.59z"/>
<path class="st14" d="M892.53,514.46c0,0,0.23,3.74,1.49,10.17c9.83-3.17,14.28-12.05,15.77-15.81c0.42-1.06,0.61-1.72,0.61-1.72
	s-0.38-0.08-1.04-0.22c-1.38-0.29-3.98-0.85-6.77-1.43L892.53,514.46z"/>
<path class="st10" d="M888.55,514.36c0,0,21.59,2.43,22.9-11.03c1.31-13.47,4.98-22.22-8.75-24.35
	c-13.73-2.12-16.91,2.75-18.44,7.14C882.73,490.51,882.97,513.38,888.55,514.36z"/>
<path class="st6" d="M911.35,504.26c0,0-1.37-17.88-21.02-19.73c-13.46-1.27-5.96-12.85-4.52-14.7c0,0,10.31,1.41,20.88,3.16
	C928.88,476.65,913.53,501.47,911.35,504.26z"/>
<g>
	
		<rect x="796.88" y="583.57" transform="matrix(0.9511 -0.3089 0.3089 0.9511 -149.2936 276.3149)" class="st18" width="1.99" height="52.03"/>
	
		<rect x="804.93" y="630.78" transform="matrix(0.9998 -0.0214 0.0214 0.9998 -13.3155 17.9164)" class="st18" width="54.6" height="3.27"/>
</g>
<g>
	<path class="st10" d="M853.62,627.23c0,0-8.47,3.21-14.2,2.15c-5.73-1.05-14.96,2.75-16.28,4.94c-1.31,2.19-0.66,2.93,2.16,3.33
		c2.82,0.39,12.99,3.46,19.11,0.35c6.12-3.11,14.43-4.12,14.43-4.12L853.62,627.23z"/>
	<path class="st6" d="M920.58,543.12c0,0-2.07,70.71-17.6,78.74c-7.66,3.96-42.26,14.86-52.64,16.72c0,0-2.79-1.79-3.11-10.33
		c0,0,35.55-17.72,39.99-25.7c6.61-11.88-9.85-44.45-1.17-55.88C894.73,535.25,910.8,528.97,920.58,543.12z"/>
</g>
<path class="st19" d="M1159.47,828.07H52.68c-0.59,0-1.08-0.49-1.08-1.08l0,0c0-0.59,0.49-1.08,1.08-1.08h1106.79
	c0.59,0,1.08,0.49,1.08,1.08l0,0C1160.55,827.58,1160.06,828.07,1159.47,828.07z"/>
</svg>
